<?xml version="1.0" encoding="UTF-8"?>
<svg width="15px" height="23px" viewBox="0 0 15 23" version="1.1" xmlns="http://www.w3.org/2000/svg" xmlns:xlink="http://www.w3.org/1999/xlink">
    <!-- Generator: Sketch 43.1 (39012) - http://www.bohemiancoding.com/sketch -->
    <title>手机</title>
    <desc>Created with Sketch.</desc>
    <defs></defs>
    <g id="Page-1-Copy" stroke="none" stroke-width="1" fill="none" fill-rule="evenodd">
        <g id="3.1.1登录2" transform="translate(-541.000000, -519.000000)" fill="#B3B3B3">
            <g id="手机" transform="translate(541.000000, 519.000000)">
                <path d="M14.0217391,0 L0.978260867,0 C0.437989123,0 0,0.449322425 0,1.00363636 L0,21.9963636 C0,22.5506497 0.437989123,23 0.978260867,23 L14.0217391,23 C14.5620109,23 15,22.5506497 15,21.9963636 L15,1.00363636 C15,0.449322425 14.5620109,0 14.0217391,0 Z M14.0217391,1.00363636 L14.0217391,17.3963637 L0.978260867,17.3963637 L0.978260867,1.00363636 L14.0217391,1.00363636 Z M0.978260867,21.9963637 L0.978260867,18.4 L14.0217391,18.4 L14.0217391,21.9963637 L0.978260867,21.9963637 Z M6.35869565,20.0727273 C6.35869565,20.7194025 6.86967501,21.2436364 7.5,21.2436364 C8.13032499,21.2436364 8.64130435,20.7194025 8.64130435,20.0727273 C8.64130435,19.4260521 8.13032499,18.9018182 7.5,18.9018182 C6.86967501,18.9018182 6.35869565,19.4260521 6.35869565,20.0727273 L6.35869565,20.0727273 Z" id="Shape"></path>
            </g>
        </g>
    </g>
</svg>