<?xml version="1.0" encoding="UTF-8"?>
<svg width="18px" height="20px" viewBox="0 0 18 20" version="1.1" xmlns="http://www.w3.org/2000/svg" xmlns:xlink="http://www.w3.org/1999/xlink">
    <!-- Generator: Sketch 43.1 (39012) - http://www.bohemiancoding.com/sketch -->
    <title>Shape</title>
    <desc>Created with Sketch.</desc>
    <defs></defs>
    <g id="Page-1-Copy" stroke="none" stroke-width="1" fill="none" fill-rule="evenodd">
        <g id="3.1.1登录3" transform="translate(-541.000000, -581.000000)" fill="#B3B3B3">
            <path d="M558.63959,585.549812 C557.853743,585.494255 557.063951,585.343058 556.386645,585.120924 C556.167307,585.053369 555.947756,584.978513 555.726921,584.8975 C555.261396,584.757109 554.628,584.478565 553.909087,584.081678 C553.901389,584.078077 553.893761,584.073575 553.886182,584.069365 C553.71717,583.975941 553.544261,583.876238 553.368216,583.77033 C553.130963,583.631156 552.896062,583.482661 552.661565,583.327936 C552.652464,583.321658 552.643506,583.31606 552.63462,583.309952 C552.466178,583.198544 552.298426,583.083462 552.131932,582.963975 C552.023606,582.887854 551.915113,582.806768 551.806573,582.726315 C551.725002,582.665062 551.643383,582.607485 551.56174,582.544286 C550.964674,582.087558 550.375354,581.575126 549.823529,581.023051 C549.271704,581.575126 548.68229,582.087533 548.085247,582.544286 C548.003747,582.60746 547.922009,582.665038 547.840438,582.726315 C547.731779,582.806768 547.623405,582.887878 547.515103,582.963975 C547.348514,583.083486 547.180809,583.198544 547.012368,583.309952 C547.003553,583.31606 546.994405,583.321658 546.985542,583.327936 C546.750878,583.482685 546.51612,583.631156 546.278866,583.77033 C546.10275,583.87619 545.929913,583.975941 545.760806,584.069365 C545.753297,584.07355 545.74548,584.078052 545.738043,584.081678 C545.019131,584.478541 544.385615,584.75706 543.920043,584.8975 C543.699327,584.978635 543.479966,585.053393 543.260414,585.120924 C542.583012,585.343058 541.793435,585.494255 541.007469,585.549812 L541.005568,585.549812 C541.028498,585.910561 541.052116,586.389094 541.079655,586.907172 C541.084027,586.907172 541.089112,586.907172 541.094221,586.906393 C541.226831,588.839967 541.605177,591.590385 542.176011,593.206382 C542.201577,593.276979 542.223295,593.350667 542.248885,593.420534 C542.260861,593.453387 542.274927,593.48383 542.286974,593.516488 C543.653254,597.129112 546.026287,599.757707 548.878151,600.721172 L548.878151,600.731199 C549.255095,600.858644 549.572708,600.937417 549.823482,600.986867 C550.074231,600.937296 550.391987,600.858644 550.768931,600.731199 L550.768931,600.721172 C553.620843,599.757707 555.993733,597.129112 557.360156,593.516488 C557.372226,593.483587 557.386245,593.453387 557.398411,593.420534 C557.423788,593.350667 557.4456,593.276979 557.471096,593.206382 C558.042025,591.590337 558.420371,588.839943 558.553028,586.906393 C558.558161,586.907147 558.563341,586.907147 558.567594,586.907147 C558.595085,586.389094 558.618609,585.910634 558.641585,585.549812 L558.63959,585.549812 L558.63959,585.549812 Z M557.608696,586.483783 L557.597623,586.695526 C557.586313,586.743832 557.578828,586.793136 557.575383,586.843169 C557.451849,588.64302 557.104963,591.31099 556.546223,592.892552 C556.530779,592.935382 556.516285,592.979186 556.501957,593.022917 C556.492999,593.050148 556.484184,593.07755 556.470473,593.113177 C556.459044,593.140652 556.447924,593.168199 556.440345,593.188884 C555.169987,596.547519 552.985451,598.96571 550.446732,599.823364 C550.405673,599.837187 550.366016,599.853686 550.327927,599.872425 C550.155637,599.927569 549.98691,599.974585 549.823387,600.012938 C549.660957,599.974828 549.492943,599.927982 549.321008,599.873082 C549.282349,599.854003 549.242074,599.83743 549.200326,599.82334 C546.661489,598.965734 544.476976,596.547543 543.209067,593.195066 C543.199087,593.168175 543.188608,593.142063 543.172213,593.102591 C543.162543,593.076309 543.153917,593.049199 543.144983,593.022114 C543.130537,592.978334 543.115971,592.934433 543.102855,592.898124 C542.54212,591.310771 542.195257,588.642752 542.071819,586.843267 C542.068397,586.793063 542.060889,586.743516 542.04946,586.695137 L542.038625,586.487847 C542.036914,586.454581 542.035203,586.421509 542.033492,586.388729 C542.569469,586.303895 543.086436,586.181391 543.556333,586.027177 C543.776859,585.959257 544.00083,585.883671 544.240151,585.796331 C544.788863,585.627394 545.468712,585.323201 546.209722,584.914973 C546.2226,584.908208 546.234885,584.901516 546.245744,584.895383 C546.424878,584.796411 546.608122,584.690649 546.785783,584.583816 C547.018926,584.4471 547.264401,584.293445 547.53625,584.114166 C547.543877,584.109177 547.557017,584.100538 547.564502,584.095306 C547.743113,583.977133 547.920964,583.855042 548.089548,583.734022 C548.188513,583.664568 548.287501,583.591294 548.386727,583.517777 L548.439928,583.478354 L548.527867,583.413427 C548.584085,583.372251 548.640256,583.330929 548.691913,583.290922 C549.08145,582.992837 549.459868,582.678861 549.823553,582.351865 C550.186811,582.67852 550.564159,582.991839 550.951107,583.287807 C551.006945,583.330978 551.062736,583.372008 551.118527,583.412891 L551.211646,583.481663 L551.245434,583.506777 C551.349459,583.583969 551.453533,583.661137 551.549099,583.728108 C551.72581,583.855042 551.903946,583.977231 552.065663,584.08399 L552.1105,584.113996 C552.38014,584.291937 552.625614,584.44564 552.852175,584.578535 C553.038889,584.690722 553.222134,584.79646 553.396729,584.892974 C553.405402,584.897817 553.417449,584.90429 553.430137,584.911007 C554.173903,585.321327 554.856485,585.62698 555.407003,585.796525 C555.646775,585.883963 555.870033,585.959305 556.072857,586.021531 C556.554326,586.179444 557.075666,586.30336 557.613662,586.388729 C557.61207,586.420097 557.610406,586.451855 557.608696,586.483783 L557.608696,586.483783 Z M554.137217,588.759636 L549.036162,594.114313 L546.424783,591.372875 C546.243867,591.18301 545.950822,591.18301 545.769906,591.372875 C545.58899,591.562886 545.58899,591.870486 545.769906,592.060425 L548.708712,595.145553 C548.799194,595.240534 548.917642,595.288037 549.036162,595.288037 C549.154658,595.288037 549.27313,595.24051 549.363564,595.145553 L554.792069,589.447161 C554.972985,589.25732 554.972985,588.949623 554.792069,588.759684 C554.611177,588.569746 554.318109,588.569746 554.137217,588.759636 L554.137217,588.759636 Z" id="Shape"></path>
        </g>
    </g>
</svg>