<?xml version="1.0" encoding="UTF-8"?>
<svg width="55px" height="20px" viewBox="0 0 55 20" version="1.1" xmlns="http://www.w3.org/2000/svg" xmlns:xlink="http://www.w3.org/1999/xlink">
    <!-- Generator: Sketch 41 (35326) - http://www.bohemiancoding.com/sketch -->
    <title>添加</title>
    <desc>Created with Sketch.</desc>
    <defs></defs>
    <g id="Page-1" stroke="none" stroke-width="1" fill="none" fill-rule="evenodd">
        <g id="添加" fill="#288BDB">
            <text font-family="PingFangSC-Regular, PingFang SC" font-size="16" font-weight="normal" letter-spacing="-0.385882348">
                <tspan x="24.3858823" y="17">添加</tspan>
            </text>
            <g id="Group">
                <g>
                    <path d="M19.2093362,6.10835575 C18.7051106,4.91776139 17.985423,3.84933623 17.0680434,2.93195662 C16.1506638,2.01457701 15.0822386,1.29266811 13.8916443,0.790663774 C12.658846,0.268668113 11.3483037,0.00433839479 10,0.00433839479 C8.65169631,0.00433839479 7.34115401,0.268668113 6.10835575,0.790663774 C4.91776139,1.29488937 3.84933623,2.01457701 2.93195662,2.93195662 C2.01457701,3.84933623 1.29266811,4.91776139 0.790663774,6.10835575 C0.268668113,7.34115401 0.00433839479,8.65169631 0.00433839479,10 C0.00433839479,11.3483037 0.268668113,12.658846 0.790663774,13.8916443 C1.29488937,15.0822386 2.01457701,16.1506638 2.93195662,17.0680434 C3.84933623,17.985423 4.91776139,18.7073319 6.10835575,19.2093362 C7.34115401,19.7313319 8.65169631,19.9956616 10,19.9956616 C11.1128503,19.9956616 12.2034881,19.8135184 13.2474794,19.4558959 C14.2559306,19.1093796 15.197744,18.605154 16.0484859,17.9587679 C16.3039306,17.7632972 16.5527115,17.5544989 16.7881649,17.3368156 C17.0591584,17.0858134 17.0747072,16.6659957 16.823705,16.3950022 C16.5727028,16.1240087 16.152885,16.1084599 15.8818915,16.359462 C15.6775358,16.548269 15.4620738,16.7304121 15.2399479,16.8992278 C13.7228286,18.054282 11.910282,18.665128 9.99777874,18.665128 C5.21985249,18.665128 1.33487202,14.7779262 1.33487202,10.0022213 C1.33487202,5.22651627 5.22207375,1.33931453 9.99777874,1.33931453 C14.7734837,1.33931453 18.6606855,5.22651627 18.6606855,10.0022213 C18.6606855,11.0506551 18.476321,12.0724338 18.1120347,13.0453449 C17.9832017,13.3896399 18.1564599,13.7739176 18.5007549,13.9027505 C18.8450499,14.0315835 19.2293275,13.8583254 19.3581605,13.5140304 C19.7779783,12.392295 19.9912191,11.2128069 19.9912191,10.0044425 C19.9956616,8.65169631 19.7313319,7.34115401 19.2093362,6.10835575 Z" id="Shape"></path>
                    <path d="M10,15.6442169 C10.3687289,15.6442169 10.6663774,15.3465683 10.6663774,14.9778395 L10.6663774,10.5442082 L14.8556703,10.5442082 C15.2243991,10.5442082 15.5220477,10.2465597 15.5220477,9.8778308 C15.5220477,9.50910195 15.2243991,9.21145336 14.8556703,9.21145336 L10.6663774,9.21145336 L10.6663774,5.02216052 C10.6663774,4.65343167 10.3687289,4.35578308 10,4.35578308 C9.63127115,4.35578308 9.33362256,4.65343167 9.33362256,5.02216052 L9.33362256,9.21145336 L5.14432972,9.21145336 C4.77560087,9.21145336 4.47795228,9.50910195 4.47795228,9.8778308 C4.47795228,10.2465597 4.77560087,10.5442082 5.14432972,10.5442082 L9.33362256,10.5442082 L9.33362256,14.9800607 C9.33362256,15.3465683 9.63127115,15.6442169 10,15.6442169 Z" id="Shape"></path>
                </g>
            </g>
        </g>
    </g>
</svg>