<?xml version="1.0" encoding="UTF-8"?>
<svg width="53px" height="41px" viewBox="0 0 53 41" version="1.1" xmlns="http://www.w3.org/2000/svg" xmlns:xlink="http://www.w3.org/1999/xlink">
    <!-- Generator: Sketch 41 (35326) - http://www.bohemiancoding.com/sketch -->
    <title>Group</title>
    <desc>Created with Sketch.</desc>
    <defs></defs>
    <g id="Page-1" stroke="none" stroke-width="1" fill="none" fill-rule="evenodd">
        <g id="登录首页" transform="translate(-62.000000, -30.000000)" fill="rgba(240,240,240,0.9)">
            <g id="Group" transform="translate(62.000000, 30.000000)">
                <path d="M28.623,30.553 C15.161,30.553 4.248,26.141 4.248,20.699 C4.248,15.257 15.161,10.845 28.623,10.845 C42.07,10.845 52.972,15.247 52.997,20.681 C52.997,20.67 52.998,20.659 52.998,20.648 C52.998,9.763 41.19,0.94 26.623,0.94 C12.056,0.94 0.248,9.764 0.248,20.648 C0.248,31.532 12.056,40.356 26.623,40.356 C41.139,40.356 52.913,31.592 52.994,20.76 C52.913,26.174 42.035,30.553 28.623,30.553 L28.623,30.553 Z" id="Shape"></path>
                <g transform="translate(16.000000, 14.000000)" id="Shape">
                    <path d="M10.0972045,4.34149072 C10.0413614,4.50367882 9.94828973,4.58477287 9.81798934,4.58477287 C9.68768896,4.58477287 9.64218723,4.41010877 9.70733743,4.09924824 C9.75283915,3.88091811 9.82729651,3.64491363 9.87279824,3.42658349 C9.96276755,2.9972009 9.95449451,2.59900832 9.88831019,2.28710813 C9.80040913,1.87643954 9.51292098,1.61652271 9.0320505,1.50319898 C8.72181148,1.43042226 8.45604006,1.40027191 8.24921404,1.40962892 C7.73835379,1.4325016 7.41777348,1.4387396 7.30608743,1.44705694 C5.76006299,5.95921305 4.98653371,8.21529111 3.43947514,12.7274472 C3.28538976,13.1765835 3.29779932,13.456254 3.46119187,13.5695777 C3.5480588,13.6298784 3.85622955,13.6537908 4.33503177,13.6818618 C4.45809325,13.6891395 4.50876562,13.7463212 4.47670759,13.8409309 C4.44051304,13.946977 4.33503177,14 4.16129792,14 C4.074431,14 3.99583711,13.9885637 3.93999409,13.981286 C3.35053996,13.9116283 2.83761145,13.943858 2.56666937,13.943858 C2.20782624,13.943858 1.86759745,13.953215 1.545983,13.971929 C1.22436856,13.990643 0.818989572,14 0.329846054,14 C0.07958658,14 -0.0279629461,13.950096 0.00616334586,13.8502879 C0.044426158,13.7380038 0.305026933,13.6693858 0.771419589,13.6631478 C1.10337534,13.6589891 1.35880546,13.5820537 1.50772019,13.4198656 C1.59562125,13.3231766 1.71144381,13.0642994 1.8520855,12.6536308 C3.38776864,8.17162508 4.15612727,5.93010237 5.69284454,1.44809661 C4.61217863,1.46057262 3.92137975,1.52503199 3.62355029,1.63523672 C2.84381623,1.92322457 2.1685293,2.69049904 1.62974754,3.9318618 C1.46842325,4.3040627 1.32881569,4.49224248 1.20989073,4.49224248 C1.07959035,4.49224248 1.05890775,4.3612444 1.14784293,4.10028791 C1.19437878,3.96305182 1.24711942,3.82685541 1.3050307,3.68961932 C1.3774198,3.51807422 1.41258023,3.43178183 1.48496933,3.26023672 C1.71351207,2.68738004 2.0206487,1.93362124 2.40637921,1 L3.14061155,1 C4.4632639,1.02183301 5.12510714,1.03326935 6.44775948,1.05614203 C6.83452412,1.06861804 7.44362673,1.06861804 8.27403317,1.05614203 C9.36400625,1.03430902 9.91002692,1.02287268 11,1 C10.7828327,1.69761676 10.5367097,2.79862444 10.1499451,4.10028791 C10.1396038,4.13667626 10.1261601,4.18450096 10.1178871,4.24064299 C10.1075458,4.29470569 10.101341,4.33005438 10.0972045,4.34149072 L10.0972045,4.34149072 Z"></path>
                    <path d="M17.9941142,1.17314518 C17.9627776,1.26637007 17.8343988,1.31247029 17.6120104,1.31247029 C17.2076677,1.31247029 16.9529318,1.32783703 16.8478027,1.35857051 C16.7416628,1.38930399 16.6678702,1.4415509 16.6264251,1.51531125 C16.5859908,1.5890716 16.4960246,1.82879274 16.3585481,2.23447466 C15.5539061,4.60095256 15.1515852,5.78316706 14.3469432,8.14964496 C14.1134353,8.83500155 13.9971868,9.17819207 13.7646898,9.86354865 C13.4867042,10.7117927 13.2521854,11.4084182 13.0570901,11.9462541 C12.7811262,12.7063955 12.535488,13.2800871 12.331295,13.6601578 C11.9886145,14.2983897 11.4882405,14.848519 10.8342162,15.3095212 C10.1801919,15.7705234 9.57165617,16 9.01164156,16 C8.59820117,16 8.30808529,15.8739927 8.13927222,15.6230027 C7.97045916,15.3709881 7.9552963,15.0431643 8.09277282,14.6385069 C8.33032414,13.9398324 8.7467971,13.5894708 9.3421917,13.5894708 C9.58681902,13.5894708 9.76169723,13.6755245 9.86783718,13.8466076 C9.97397714,14.0176906 9.98206399,14.2389716 9.89007603,14.5094263 C9.81122921,14.7419763 9.6666767,14.9509639 9.46955964,15.1343403 C9.32803971,15.2664943 9.24514946,15.3740615 9.21987804,15.4478218 C9.18247634,15.5584623 9.24312774,15.6127582 9.4028431,15.6127582 C9.74249095,15.6127582 10.0629325,15.373037 10.3641678,14.8956436 C10.5259049,14.6374824 10.8200642,13.8834877 11.2456349,12.6316107 C12.6749862,8.42829517 13.3896619,6.3261252 14.8190133,2.12280969 C14.9524464,1.7304456 14.9302075,1.47023548 14.7664488,1.38623064 C14.6906345,1.34730156 14.4348878,1.33091037 14.0204365,1.33091037 C13.8293846,1.33091037 13.7141469,1.31861698 13.6747235,1.2940302 C13.6353001,1.26944342 13.6231698,1.23256324 13.6403544,1.18338967 C13.6817995,1.06148021 13.7879395,1.00001325 13.9577634,1.00001325 L14.3883884,1.00001325 L15.202128,1.00001325 L17.5452938,1.00001325 C17.88292,0.998988799 18.0325268,1.05738241 17.9941142,1.17314518 L17.9941142,1.17314518 Z"></path>
                    <path d="M25.9937612,12.8440612 C25.9574252,12.9480204 25.8577608,13 25.6937298,13 C25.5847218,13 25.4881719,12.9938848 25.4051182,12.9816543 C24.5839248,12.9520972 24.172809,12.9378283 23.3516157,12.9082713 C22.5096589,12.9378283 22.0891996,12.9520972 21.2472428,12.9816543 C21.1662654,12.9938848 21.0821736,13 20.9949672,13 C20.7769512,13 20.6897449,12.9368091 20.7343862,12.8083889 C20.7842184,12.6677381 20.957593,12.598432 21.2503573,12.5974128 C22.2085892,12.5912975 22.7328657,12.4781654 22.8044995,12.2743238 C22.8086522,12.2631125 22.813843,12.2152097 22.8211102,12.1306154 C22.8356446,11.9369659 22.8429118,11.8401411 22.8574462,11.6464916 C22.8595225,11.5445708 22.8605607,11.4936103 22.8636752,11.3916895 C22.8979349,11.0125441 22.9519198,10.1757742 23.0256299,8.88036064 L19.525955,8.88036064 C18.1856761,10.8341827 17.4641471,11.9563309 17.3613682,12.2498628 C17.3011543,12.4210898 17.3395666,12.5209722 17.4485746,12.5607213 C17.475567,12.5709134 17.7496442,12.6065857 18.2417373,12.6341043 C18.5479978,12.6514308 18.6912654,12.7074873 18.6528531,12.8165425 C18.6102881,12.9388475 18.4472952,13 18.1628363,13 C17.6603615,13 17.0852147,12.975539 16.4373959,12.926617 C16.2775175,12.9143865 16.110372,12.9082713 15.9359592,12.9082713 C15.7605083,12.9082713 15.5840192,12.9296746 15.4064919,12.9694238 C15.3130565,12.9898079 15.2383082,13 15.1832851,13 C15.030674,13 14.9725364,12.9449628 15.0119869,12.8348883 C15.0503992,12.7248138 15.2445372,12.6636613 15.5923246,12.6514308 C15.9401119,12.6392003 16.2089982,12.5811054 16.3979454,12.4771462 C16.5879307,12.373187 16.7768778,12.172403 16.9679013,11.8798902 C19.9163074,7.38110545 22.6062088,3.69564877 24.2070687,1.02124657 C24.2859697,0.88874951 24.390825,0.715484124 24.5299399,0.535084281 C24.6046882,0.401568013 24.6420624,0.334300274 24.7168107,0.200784006 C24.7967499,0.0672677381 24.864231,0 24.9182159,0 C24.9514374,0 24.9649336,0.0366914935 24.9618191,0.110074481 C24.936903,0.586044688 24.9099105,1.58079185 24.8808418,3.09431595 C24.858002,4.27863583 24.8227042,7.28326147 24.6815129,12.0123873 C24.6732075,12.2875735 24.7220016,12.4638965 24.8320477,12.5403371 C24.9420939,12.6157585 25.2109802,12.6565269 25.6293631,12.671815 C25.907593,12.6799686 26.0300972,12.7401019 25.9937612,12.8440612 L25.9937612,12.8440612 Z M23.0983019,8.45840847 C23.1128363,7.90905527 23.1377524,6.99890239 23.1720121,5.72998824 C23.2135389,4.71485692 23.2343023,4.20729126 23.2768673,3.19215994 C22.3425133,4.54261074 21.1724944,6.29870639 19.7678489,8.45942768 C21.0998225,8.45840847 21.7663283,8.45840847 23.0983019,8.45840847 L23.0983019,8.45840847 Z"></path>
                </g>
            </g>
        </g>
    </g>
</svg>
