<?xml version="1.0" encoding="UTF-8"?>
<svg width="56px" height="20px" viewBox="0 0 56 20" version="1.1" xmlns="http://www.w3.org/2000/svg" xmlns:xlink="http://www.w3.org/1999/xlink">
    <!-- Generator: Sketch 41 (35326) - http://www.bohemiancoding.com/sketch -->
    <title>删除</title>
    <desc>Created with Sketch.</desc>
    <defs></defs>
    <g id="Page-1" stroke="none" stroke-width="1" fill="none" fill-rule="evenodd">
        <g id="删除" fill="#EB4848">
            <text font-family="PingFangSC-Regular, PingFang SC" font-size="16" font-weight="normal" letter-spacing="-0.385882348">
                <tspan x="24.3858823" y="17">删除</tspan>
            </text>
            <g>
                <path d="M5.75483091,19.0227743 C4.44402473,19.0227743 3.3695652,17.9222791 3.3695652,16.5797102 L3.3695652,3.38716355 L2.89251207,3.87577639 L17.2041063,3.87577639 L16.7270532,3.38716355 L16.7270532,16.5797102 C16.7270532,17.9222791 15.6525936,19.0227743 14.3417875,19.0227743 L5.75483091,19.0227743 Z M17.6811594,16.5797102 L17.6811594,3.38716355 L17.6811594,2.89855072 L17.2041063,2.89855072 L2.89251207,2.89855072 L2.41545894,2.89855072 L2.41545894,3.38716355 L2.41545894,16.5797102 C2.41545894,18.4619859 3.91708637,20 5.75483091,20 L14.3417875,20 C16.179532,20 17.6811594,18.4619859 17.6811594,16.5797102 Z M9.57125604,15.1138716 L10.5253624,15.1138716 L10.5253624,6.8074534 L9.57125604,6.8074534 L9.57125604,15.1138716 Z M5.75483091,14.136646 L6.70893722,14.136646 L6.70893722,7.78467908 L5.75483091,7.78467908 L5.75483091,14.136646 Z M12.9106281,14.136646 L13.8647343,14.136646 L13.8647343,7.78467908 L12.9106281,7.78467908 L12.9106281,14.136646 Z" id="Shape"></path>
                <path d="M13.3333333,1.93236715 C13.3333333,0.844306883 12.501088,0 11.4285714,0 L8.57142857,0 C7.49891201,0 6.66666668,0.844306883 6.66666668,1.93236715 L6.66666668,2.89855073 L0,2.89855073 L0,3.8647343 L20,3.8647343 L20,2.89855073 L13.3333333,2.89855073 L13.3333333,1.93236715 Z M7.14285715,2.89855073 L7.61904762,3.38164251 L7.61904762,1.93236715 C7.61904762,1.37791534 8.0248975,0.966183585 8.57142857,0.966183585 L11.4285714,0.966183585 C11.9751025,0.966183585 12.3809524,1.37791534 12.3809524,1.93236715 L12.3809524,3.38164251 L12.8571429,2.89855073 L7.14285715,2.89855073 Z" id="Combined-Shape"></path>
            </g>
        </g>
    </g>
</svg>