<?xml version="1.0" encoding="UTF-8"?>
<svg width="160px" height="160px" viewBox="0 0 160 160" version="1.1" xmlns="http://www.w3.org/2000/svg" xmlns:xlink="http://www.w3.org/1999/xlink">
    <!-- Generator: Sketch 43.1 (39012) - http://www.bohemiancoding.com/sketch -->
    <title>默认头像-2</title>
    <desc>Created with Sketch.</desc>
    <defs></defs>
    <g id="Page-1-Copy" stroke="none" stroke-width="1" fill="none" fill-rule="evenodd">
        <g id="3.1.1登录2" transform="translate(-640.000000, -296.000000)" fill-rule="nonzero">
            <g id="默认头像-2" transform="translate(640.000000, 296.000000)">
                <polygon id="Shape" fill="#50799A" points="0.0154625 0 159.93487 0 159.93487 159.93487 0.0154625 159.93487"></polygon>
                <polygon id="Shape" fill="#FEE1B9" points="67.4027081 95.719458 67.4027081 123.658237 79.7356545 159.852404 92.3872213 123.658237 92.3872213 95.719458"></polygon>
                <polygon id="Shape" fill="#FFD9AC" points="79.7356545 95.719458 79.7356545 159.852404 92.3872213 123.658237 92.3872213 95.719458"></polygon>
                <path d="M46.2741247,70.9067498 C45.8494539,66.7356359 48.120248,63.0012192 51.346278,62.565303 C54.5724642,62.1286058 57.5309469,65.1587781 57.9565548,69.3281739 C58.3818505,73.500225 56.1077764,77.2329236 52.8851825,77.670558 C49.6582153,78.105537 46.6997327,75.0761458 46.2741247,70.9067498" id="Shape" fill="#FEE1B9"></path>
                <path d="M106.865075,77.6861766 C103.649197,77.3272602 101.479612,73.6470402 102.023297,69.4673361 C102.561672,65.2840397 105.605901,62.1806159 108.820685,62.5360961 C112.033752,62.8925134 114.201775,66.5708592 113.659808,70.7541558 C113.120497,74.9363589 110.077205,78.0399388 106.865075,77.6861766" id="Shape" fill="#FFD9AC"></path>
                <path d="M79.9835223,35.8107294 C79.9835223,35.8107294 53.4524516,36.9585433 53.4524516,51.1084061 L53.4524516,79.9308875 C53.4524516,85.5020562 62.4592525,101.421823 70.5821945,102.083897 C74.6438217,102.415325 79.9835223,102.871858 79.9835223,102.871858 C79.9835223,102.871858 85.3215048,102.415325 89.3846939,102.083897 C97.505137,101.421823 106.424161,85.5020562 106.424161,79.9308875 L106.424161,51.8962103 C106.424161,37.7465037 79.9835223,35.8107295 79.9835223,35.8107294" id="Shape" fill="#FEE1B9"></path>
                <path d="M79.9835223,35.8107294 C79.9835223,35.8107294 53.4524516,36.9585433 53.4524516,51.1084061 L53.4524516,79.9308875 C53.4524516,85.5020562 62.4592525,101.421823 70.5821945,102.083897 C74.6438217,102.415325 79.9835223,102.871858 79.9835223,102.871858 C79.9835223,102.871858 85.3215048,102.415325 89.3846939,102.083897 C97.505137,101.421823 106.424161,85.5020562 106.424161,79.9308875 L106.424161,51.8962103 C106.424161,37.7465037 79.9835223,35.8107295 79.9835223,35.8107294" id="Shape" fill="#FEE1B9"></path>
                <path d="M106.424005,51.8962103 L106.424005,79.9307314 C106.424005,85.5019002 97.4172041,101.421667 89.2948867,102.083741 C85.2334156,102.415169 79.8944961,102.871702 79.8944961,102.871702 L79.8944961,35.8105733 C79.8944961,35.8105733 106.424005,37.7465036 106.424005,51.8962103" id="Shape" fill="#FFD9AC"></path>
                <path d="M79.9835223,159.852404 L79.9835223,115.300547 C79.9835223,115.300547 70.4770811,112.945412 68.3788731,105.244329 C67.3752194,101.54443 67.4027081,102.362534 67.4027081,106.171295 C67.4027081,117.616166 40.4452484,112.692546 33.1490008,121.536132 C27.4010291,129.493517 23.4223367,159.852404 23.4223369,159.852404 L79.9835223,159.852404 L79.9835223,159.852404 Z" id="Shape" fill="#FEE1B9"></path>
                <path d="M79.8944961,159.852404 L79.8944961,112.968684 C79.8944961,112.968684 88.9531509,112.788288 90.6930673,108.39539 C91.322967,106.804631 92.3872213,102.448905 92.3872213,106.256573 C92.3872213,117.702537 119.431052,112.692546 126.7273,121.536132 C132.475271,129.493517 136.454745,159.852404 136.454745,159.852404 L79.8944961,159.852404 Z" id="Shape" fill="#FFD9AC"></path>
                <path d="M64.0937431,111.409162 C64.0937431,111.409162 37.8983169,114.868223 32.1236372,122.113553 C27.4407005,127.98585 24.2223236,153.155912 22.7188733,159.999844 L79.9825852,159.999844 L79.9825852,115.704601 L64.0937431,111.409162 Z" id="Shape" fill="#D0D4D7"></path>
                <path d="M95.8722083,111.409162 C95.8722083,111.409162 122.213513,114.951158 127.988973,122.196332 C132.672066,128.068785 135.744409,153.155912 137.247078,159.999844 L79.9843033,159.999844 L79.9843033,115.704601 L95.8722083,111.409162 Z" id="Shape" fill="#B9C7D0"></path>
                <polyline id="Shape" fill="#D0D4D7" points="79.8944961 145.275371 79.9825852 114.070735 63.8010498 110.756616 79.9825852 160"></polyline>
                <polygon id="Shape" fill="#436B85" points="81.811528 123.29854 85.4691009 119.614259 79.9835223 114.083698 74.4977875 119.614259 78.1553606 123.299477 73.1722336 150.249127 79.9824291 160 86.8169895 150.249127"></polygon>
                <polygon id="Shape" fill="#315D76" points="85.4691009 119.614102 79.9835223 114.083855 79.8944961 114.172568 79.8944961 159.873957 79.9825852 159.999844 86.8169895 150.249127 81.8113717 123.29854"></polygon>
                <polygon id="Shape" fill="#D0D4D7" points="79.9825852 114.072453 92.9663603 107.507158 99.6583227 111.409163 88.7416745 126.996721"></polygon>
                <path d="M79.984147,114.072453 L67.0005281,107.507158 L60.3057544,111.409163 L73.4949147,126.996721 L79.984147,114.072453 Z M79.6433484,93.4549114 C83.1939338,93.4549114 86.071512,90.9226614 86.0715119,87.799402 L73.2153411,87.799402 C73.2153411,90.9228177 76.0927631,93.4549114 79.6433484,93.4549114 L79.6433484,93.4549114 Z" id="Shape" fill="#FFFFFF"></path>
                <path d="M94.8012381,72.6251127 C94.8012381,71.4048283 93.8130467,70.4156998 92.5927625,70.4156998 C91.372322,70.4156998 90.3824127,71.4048283 90.3824127,72.6251127 C90.3824127,73.8455531 91.372322,74.8345255 92.5927625,74.8345255 C93.8128906,74.8345255 94.8012381,73.8455533 94.8012381,72.6251127 M69.1254441,71.743128 C69.1254441,70.5226875 68.1353784,69.5337152 66.9150942,69.5337153 C65.69481,69.5337155 64.7066186,70.5226875 64.7066184,71.743128 C64.7066184,72.9616942 65.6948098,73.9508227 66.9150942,73.9508228 C68.1353786,73.950823 69.1254441,72.9616944 69.1254441,71.743128" id="Shape" fill="#726658"></path>
                <path d="M71.3951447,67.5417139 C71.2553757,67.5422373 71.1236906,67.4762499 71.0404455,67.3639739 C70.2517042,66.3015941 68.6721911,65.641238 66.9158752,65.641238 C65.1595591,65.641238 63.5802023,66.3015941 62.7914609,67.3639739 C62.6480819,67.5598317 62.3702262,67.6004402 62.1734312,67.455343 C61.9781075,67.3096542 61.9372048,67.033526 62.0819061,66.8374695 C63.0330812,65.5548669 64.8851395,64.7575353 66.9158752,64.7575353 C68.9466108,64.7575353 70.7988252,65.5548669 71.7498441,66.8374695 C71.8944895,67.0335078 71.853668,67.3095589 71.658475,67.455343 C71.5789761,67.5140691 71.48667,67.5417141 71.3951447,67.5417139 M97.1237298,67.5417139 C96.9890972,67.5417139 96.8550892,67.4804889 96.7690306,67.3639739 C95.9810703,66.3015941 94.4007762,65.641238 92.6444602,65.641238 C90.8890812,65.641238 89.3089434,66.3015941 88.5209831,67.3639739 C88.3768231,67.5598317 88.0997484,67.6004402 87.9029536,67.455343 C87.7072829,67.3098443 87.6663992,67.0333728 87.8115845,66.8374695 C88.7626034,65.5548669 90.614818,64.7575353 92.6444602,64.7575353 C94.6753519,64.7575353 96.5274102,65.5548669 97.4784292,66.8374695 C97.5779959,66.97138 97.5934665,67.1500152 97.5184041,67.2990493 C97.4433416,67.4480834 97.2905994,67.5419966 97.1237298,67.5417139 M50.8855281,68.2148773 L53.4212142,68.2148773 L56.8017127,44.6535347 C56.8017127,44.6535347 49.0895408,41.6353888 47.5058106,50.8847472 C45.9203625,60.1341055 50.8855281,68.2148773 50.8855281,68.2148773 M107.67537,68.2148773 L105.140621,68.2148773 L101.759967,44.6535347 C101.759967,44.6535347 109.472295,41.6353888 111.055088,50.8847472 C112.641317,60.1341056 107.67537,68.2148773 107.67537,68.2148773" id="Shape" fill="#61402F"></path>
                <path d="M53.878528,47.0078884 C53.878528,47.0078884 64.6788173,55.3915056 79.632103,55.3915056 C94.5871067,55.3915056 108.722132,50.7604228 115.14764,38.162428 C114.797314,38.2703528 103.694023,36.2438342 89.7876548,25.6378408 C72.2597927,12.2690661 39.3930206,32.1478459 53.878528,47.0078884" id="Shape" fill="#61402F"></path>
            </g>
        </g>
    </g>
</svg>